HIERARCHY
ROOT hip
{
  OFFSET 0.00112043 5.09927 -9.65472
  CHANNELS 6 Xposition Yposition Zposition Zrotation Xrotation Yrotation
  JOINT abdomen
  {
    OFFSET 0 -1.186 -1.5018
    CHANNELS 3 Zrotation Xrotation Yrotation
    JOINT abdomen2
    {
      OFFSET 0 9.964 0.2134
      CHANNELS 3 Zrotation Xrotation Yrotation
      JOINT chest
      {
        OFFSET 0 13.134 -3.2573
        CHANNELS 3 Zrotation Xrotation Yrotation
        JOINT neck
        {
          OFFSET 0 20.686 -1.6905
          CHANNELS 3 Zrotation Xrotation Yrotation
          JOINT head
          {
            OFFSET 0 7.238 -0.1237
            CHANNELS 3 Zrotation Xrotation Yrotation
            End Site
            {
              OFFSET 0 0 0
            }
          }
        }
        JOINT lCollar
        {
          OFFSET 1.7069 20.075 5.0056
          CHANNELS 3 Zrotation Xrotation Yrotation
          JOINT lShldr
          {
            OFFSET 13.6458 -0.047 -4.849
            CHANNELS 3 Zrotation Xrotation Yrotation
            JOINT lForeArm
            {
              OFFSET 28.3255 -0.9759 2.2888
              CHANNELS 3 Zrotation Xrotation Yrotation
              JOINT lHand
              {
                OFFSET 22.1583 -0.53 10.8316
                CHANNELS 3 Zrotation Xrotation Yrotation
                JOINT lThumb1
                {
                  OFFSET 0.786 0.112 2.5817
                  CHANNELS 3 Zrotation Xrotation Yrotation
                  JOINT lThumb2
                  {
                    OFFSET 0.3601 -0.878 4.2331
                    CHANNELS 3 Zrotation Xrotation Yrotation
                    JOINT lThumb2_End
                    {
                      OFFSET 1.8127 -1.216 2.2227
                      CHANNELS 3 Zrotation Xrotation Yrotation
                      End Site
                      {
                        OFFSET 0.0181 -0.0122 0.0222
                      }
                    }
                  }
                }
                JOINT lCarpal1
                {
                  OFFSET 0.9571 1.114 1.7695
                  CHANNELS 3 Zrotation Xrotation Yrotation
                  JOINT lIndex1
                  {
                    OFFSET 4.1246 0.487 4.1451
                    CHANNELS 3 Zrotation Xrotation Yrotation
                    JOINT lIndex2
                    {
                      OFFSET 3.4052 -1.454 2.7682
                      CHANNELS 3 Zrotation Xrotation Yrotation
                      JOINT lIndex2_End
                      {
                        OFFSET 1.4531 -1.795 1.2713
                        CHANNELS 3 Zrotation Xrotation Yrotation
                        End Site
                        {
                          OFFSET 0.0145 -0.0179 0.0127
                        }
                      }
                    }
                  }
                  JOINT lMid1
                  {
                    OFFSET 5.6954 0.21 2.1184
                    CHANNELS 3 Zrotation Xrotation Yrotation
                    JOINT lMid2
                    {
                      OFFSET 3.9766 -1.54 2.3863
                      CHANNELS 3 Zrotation Xrotation Yrotation
                      JOINT lMid2_End
                      {
                        OFFSET 1.4042 -1.926 1.125
                        CHANNELS 3 Zrotation Xrotation Yrotation
                        End Site
                        {
                          OFFSET 0.014 -0.0193 0.0113
                        }
                      }
                    }
                  }
                }
                JOINT lCarpal2
                {
                  OFFSET 2.0956 0.66 -0.3894
                  CHANNELS 3 Zrotation Xrotation Yrotation
                  JOINT lRing1
                  {
                    OFFSET 5.0395 -0.09 2.4971
                    CHANNELS 3 Zrotation Xrotation Yrotation
                    JOINT lRing2
                    {
                      OFFSET 3.7921 -1.552 1.4806
                      CHANNELS 3 Zrotation Xrotation Yrotation
                      JOINT lRing2_End
                      {
                        OFFSET 1.4655 -1.808 0.9609
                        CHANNELS 3 Zrotation Xrotation Yrotation
                        End Site
                        {
                          OFFSET 0.0147 -0.0181 0.0096
                        }
                      }
                    }
                  }
                  JOINT lPinky1
                  {
                    OFFSET 4.9141 -1.269 0.3591
                    CHANNELS 3 Zrotation Xrotation Yrotation
                    JOINT lPinky2
                    {
                      OFFSET 3.1477 -1.685 0.8462
                      CHANNELS 3 Zrotation Xrotation Yrotation
                      JOINT lPinky2_End
                      {
                        OFFSET 0.8055 -1.585 0.7955
                        CHANNELS 3 Zrotation Xrotation Yrotation
                        End Site
                        {
                          OFFSET 0.0081 -0.0158 0.008
                        }
                      }
                    }
                  }
                }
              }
            }
          }
        }
        JOINT rCollar
        {
          OFFSET -1.7069 20.075 5.0056
          CHANNELS 3 Zrotation Xrotation Yrotation
          JOINT rShldr
          {
            OFFSET -13.6458 -0.047 -4.849
            CHANNELS 3 Zrotation Xrotation Yrotation
            JOINT rForeArm
            {
              OFFSET -28.3255 -0.9759 2.2888
              CHANNELS 3 Zrotation Xrotation Yrotation
              JOINT rHand
              {
                OFFSET -22.1583 -0.53 10.8316
                CHANNELS 3 Zrotation Xrotation Yrotation
                JOINT rThumb1
                {
                  OFFSET -0.786 0.112 2.5817
                  CHANNELS 3 Zrotation Xrotation Yrotation
                  JOINT rThumb2
                  {
                    OFFSET -0.3601 -0.878 4.2331
                    CHANNELS 3 Zrotation Xrotation Yrotation
                    JOINT rThumb2_End
                    {
                      OFFSET -1.8127 -1.216 2.2227
                      CHANNELS 3 Zrotation Xrotation Yrotation
                      End Site
                      {
                        OFFSET -0.0181 -0.0122 0.0222
                      }
                    }
                  }
                }
                JOINT rCarpal1
                {
                  OFFSET -0.9571 1.114 1.7695
                  CHANNELS 3 Zrotation Xrotation Yrotation
                  JOINT rIndex1
                  {
                    OFFSET -4.1246 0.487 4.1451
                    CHANNELS 3 Zrotation Xrotation Yrotation
                    JOINT rIndex2
                    {
                      OFFSET -3.4052 -1.454 2.7682
                      CHANNELS 3 Zrotation Xrotation Yrotation
                      JOINT rIndex2_End
                      {
                        OFFSET -1.4531 -1.795 1.2713
                        CHANNELS 3 Zrotation Xrotation Yrotation
                        End Site
                        {
                          OFFSET -0.0145 -0.018 0.0127
                        }
                      }
                    }
                  }
                  JOINT rMid1
                  {
                    OFFSET -5.6954 0.21 2.1184
                    CHANNELS 3 Zrotation Xrotation Yrotation
                    JOINT rMid2
                    {
                      OFFSET -3.9766 -1.54 2.3863
                      CHANNELS 3 Zrotation Xrotation Yrotation
                      JOINT rMid2_End
                      {
                        OFFSET -1.4042 -1.926 1.125
                        CHANNELS 3 Zrotation Xrotation Yrotation
                        End Site
                        {
                          OFFSET -0.014 -0.0193 0.0113
                        }
                      }
                    }
                  }
                }
                JOINT rCarpal2
                {
                  OFFSET -2.0956 0.66 -0.3894
                  CHANNELS 3 Zrotation Xrotation Yrotation
                  JOINT rRing1
                  {
                    OFFSET -5.0395 -0.09 2.4971
                    CHANNELS 3 Zrotation Xrotation Yrotation
                    JOINT rRing2
                    {
                      OFFSET -3.7921 -1.552 1.4806
                      CHANNELS 3 Zrotation Xrotation Yrotation
                      JOINT rRing2_End
                      {
                        OFFSET -1.4655 -1.808 0.9609
                        CHANNELS 3 Zrotation Xrotation Yrotation
                        End Site
                        {
                          OFFSET -0.0147 -0.0181 0.0096
                        }
                      }
                    }
                  }
                  JOINT rPinky1
                  {
                    OFFSET -4.9141 -1.269 0.3592
                    CHANNELS 3 Zrotation Xrotation Yrotation
                    JOINT rPinky2
                    {
                      OFFSET -3.1477 -1.685 0.8462
                      CHANNELS 3 Zrotation Xrotation Yrotation
                      JOINT rPinky2_End
                      {
                        OFFSET -0.8055 -1.585 0.7955
                        CHANNELS 3 Zrotation Xrotation Yrotation
                        End Site
                        {
                          OFFSET -0.0081 -0.0158 0.008
                        }
                      }
                    }
                  }
                }
              }
            }
          }
        }
      }
    }
  }
  JOINT lThigh
  {
    OFFSET 8.367 -8.2066 0.5982
    CHANNELS 3 Zrotation Xrotation Yrotation
    JOINT lShin
    {
      OFFSET 2.1923 -43.463 -0.4932
      CHANNELS 3 Zrotation Xrotation Yrotation
      JOINT lFoot
      {
        OFFSET 0.7333 -45.8593 -2.6451
        CHANNELS 3 Zrotation Xrotation Yrotation
        End Site
        {
          OFFSET 2.6618 -4.2699 12.3931
        }
      }
    }
  }
  JOINT rThigh
  {
    OFFSET -8.367 -8.2066 0.5982
    CHANNELS 3 Zrotation Xrotation Yrotation
    JOINT rShin
    {
      OFFSET -2.1923 -43.463 -0.4931
      CHANNELS 3 Zrotation Xrotation Yrotation
      JOINT rFoot
      {
        OFFSET -0.7333 -45.8593 -2.6451
        CHANNELS 3 Zrotation Xrotation Yrotation
        End Site
        {
          OFFSET -2.6618 -4.2699 12.3931
        }
      }
    }
  }
}
MOTION
Frames:	4
Frame Time:	0.0333333
0 91.7903 2.51682 0 0 -0 0 0 -0 0 0 -0 0 0 -0 8.3529e-011 -5.08702e-022 -0.00321283 1.7758e-026 8.49325e-032 3.88251e-019 0 0 -0.00321283 1.66051 0.0835086 5.75766 -0.0175111 0.895433 15.7816 2.48481e-016 0 3.18055e-015 3.47873e-016 -1.98785e-016 -0 -4.96962e-017 -1.98785e-016 3.18055e-015 -1.98785e-016 -3.97569e-016 -0 3.47873e-016 -1.98785e-016 -0 2.98177e-016 -7.95139e-016 6.36111e-015 9.93923e-017 0 -0 -3.47873e-016 -1.98785e-016 -0 2.98177e-016 -7.95139e-016 6.36111e-015 9.93923e-017 0 -0 -3.47873e-016 -1.98785e-016 -0 3.47873e-016 -1.98785e-016 -0 2.98177e-016 -7.95139e-016 6.36111e-015 9.93923e-017 0 -0 -3.47873e-016 -1.98785e-016 -0 2.98177e-016 -7.95139e-016 6.36111e-015 9.93923e-017 0 -0 -3.47873e-016 -1.98785e-016 -0 0 0 -0.00321283 -1.4496 0.0636048 -5.0245 -1.74811 1.20616 -16.8394 -4.96962e-016 1.98785e-016 3.18055e-015 6.95746e-016 1.98785e-016 -3.18055e-015 4.96962e-016 -1.98785e-016 -0 5.96354e-016 0 3.18055e-015 5.96354e-016 0 -0 9.93923e-016 -3.97569e-016 3.18055e-015 -5.96354e-016 3.97569e-016 -0 -5.96354e-016 1.98785e-016 -3.18055e-015 9.93923e-016 -3.97569e-016 3.18055e-015 -5.96354e-016 3.97569e-016 -0 -5.96354e-016 1.98785e-016 -3.18055e-015 5.96354e-016 0 -0 9.93923e-016 -3.97569e-016 3.18055e-015 -5.96354e-016 3.97569e-016 -0 -5.96354e-016 1.98785e-016 -3.18055e-015 9.93923e-016 -3.97569e-016 3.18055e-015 -5.96354e-016 3.97569e-016 -0 -5.96354e-016 1.98785e-016 -3.18055e-015 -4.66111 -0.998717 0.12318 0.00986924 1.54847 0.176523 4.65186 -0.572283 -0.254274 4.66111 -0.998765 -0.123176 -0.00986867 1.54869 -0.176537 -4.65186 -0.572453 0.25427 
30.8838 47.0419 32.1303 -133.331 55.5589 1.15288e-006 -0.0781479 3.09096 0.0932266 -0.161683 6.18179 0.19111 -0.161678 6.18181 0.191112 -0.000970644 11.8528 -0.0342765 6.82157e-006 2.97446 4.99764e-006 -15.2259 -0.832679 1.04985 -2.68484 -9.39771 4.63534 -10.074 64.0512 -6.53579 -3.01989 9.25642 4.09607 -1.76556e-030 1.59028e-014 6.36111e-015 6.36111e-015 9.54166e-015 6.36111e-015 6.36111e-015 1.27222e-014 9.54166e-015 -3.53113e-031 3.18055e-015 6.36111e-015 9.54166e-015 0 9.54166e-015 0 9.54166e-015 -0 0 9.54166e-015 -0 9.54166e-015 0 9.54166e-015 0 9.54166e-015 -0 0 9.54166e-015 -0 -3.53113e-031 3.18055e-015 6.36111e-015 9.54166e-015 0 9.54166e-015 0 9.54166e-015 -0 0 9.54166e-015 -0 9.54166e-015 0 9.54166e-015 0 9.54166e-015 -0 0 9.54166e-015 -0 15.7566 -0.897152 -0.718287 2.67488 -9.42661 -4.00843 7.49587 63.508 7.71589 2.98248 9.52538 -3.68499 -3.18055e-015 0 6.36111e-015 -6.36111e-015 -3.18055e-015 1.27222e-014 -9.54166e-015 9.54166e-015 1.27222e-014 3.18055e-015 -3.18055e-015 -0 -3.18055e-015 -3.18055e-015 3.18055e-015 -1.27222e-014 6.36111e-015 6.36111e-015 -3.18055e-015 6.36111e-015 6.36111e-015 -3.18055e-015 -3.18055e-015 3.18055e-015 -1.27222e-014 6.36111e-015 6.36111e-015 -3.18055e-015 6.36111e-015 6.36111e-015 3.18055e-015 -3.18055e-015 -0 -3.18055e-015 -3.18055e-015 3.18055e-015 -1.27222e-014 6.36111e-015 6.36111e-015 -3.18055e-015 6.36111e-015 6.36111e-015 -3.18055e-015 -3.18055e-015 3.18055e-015 -1.27222e-014 6.36111e-015 6.36111e-015 -3.18055e-015 6.36111e-015 6.36111e-015 23.814 14.3167 27.362 35.9106 35.2209 -40.7709 -15.7539 13.6358 -5.73483 -21.9259 11.7548 -27.6982 -38.2555 35.6686 42.5535 16.2458 14.1827 4.01164 
47.1504 38.817 37.8657 166.67 80.5612 -4.00804e-007 -0.116418 4.53467 0.136573 -0.244934 9.06933 0.283748 -0.244935 9.06932 0.28375 -0.00917517 17.1568 0.122975 7.236e-007 4.22945 1.47311e-006 -22.0173 -1.23632 1.43161 -4.77968 -13.6606 4.10332 62.8493 75.1094 -92.7701 -4.60528 13.3284 5.88848 3.41496e-006 6.39275e-007 3.92905e-007 3.51298e-007 -7.65916e-007 1.19208e-007 -1.19271e-015 -9.93923e-016 -1.27222e-014 4.57205e-015 5.96354e-016 -6.36111e-015 3.41496e-006 6.39275e-007 3.92905e-007 3.51298e-007 -7.65916e-007 1.19208e-007 -2.38542e-015 1.39149e-015 -6.36111e-015 3.41496e-006 6.39275e-007 3.92905e-007 3.51298e-007 -7.65916e-007 1.19208e-007 -2.38542e-015 1.39149e-015 -6.36111e-015 4.57205e-015 5.96354e-016 -6.36111e-015 3.41496e-006 6.39275e-007 3.92905e-007 3.51298e-007 -7.65916e-007 1.19208e-007 -2.38542e-015 1.39149e-015 -6.36111e-015 3.41496e-006 6.39275e-007 3.92905e-007 3.51298e-007 -7.65916e-007 1.19208e-007 -2.38542e-015 1.39149e-015 -6.36111e-015 22.7749 -1.32787 -0.959826 4.65684 -13.6942 -3.52677 -61.1033 74.1449 89.9942 4.53161 13.7132 -5.28934 -1.44469e-007 3.84011e-007 6.1514e-007 1.44469e-007 -3.84011e-007 -6.1514e-007 -2.13848e-007 5.63739e-007 -1.30104e-008 -6.4605e-016 1.2921e-015 3.18055e-015 -1.44469e-007 3.84011e-007 6.1514e-007 1.44469e-007 -3.84011e-007 -6.1514e-007 -2.13848e-007 5.63739e-007 -1.30104e-008 -1.44469e-007 3.84011e-007 6.1514e-007 1.44469e-007 -3.84011e-007 -6.1514e-007 -2.13848e-007 5.63739e-007 -1.30104e-008 -6.4605e-016 1.2921e-015 3.18055e-015 -1.44469e-007 3.84011e-007 6.1514e-007 1.44469e-007 -3.84011e-007 -6.1514e-007 -2.13848e-007 5.63739e-007 -1.30104e-008 -1.44469e-007 3.84011e-007 6.1514e-007 1.44469e-007 -3.84011e-007 -6.1514e-007 -2.13848e-007 5.63739e-007 -1.30104e-008 31.0603 15.5432 41.9071 71.1018 36.8962 -68.8518 -24.3241 18.7035 -6.5895 -30.4861 17.4529 -41.6009 -68.0347 35.2042 66.1763 25.5874 19.8077 5.88392 
42.3022 41.1207 36.9382 -179.997 75.0068 2.55082e-010 -0.107305 4.33127 0.127489 -0.225277 8.66236 0.264279 -0.225277 8.66234 0.264279 -0.0249709 15.9112 0.471414 4.52211e-008 3.76498 3.75395e-008 -20.3967 -1.21145 1.14492 -4.30635 -12.7136 4.22385 40.2279 76.7622 -67.2313 -3.97623 11.9888 5.45766 1.59028e-015 -7.95139e-016 -6.36111e-015 7.95139e-016 -7.95139e-016 -9.54166e-015 9.83452e-008 4.10668e-008 -5.38368e-009 7.95139e-016 0 -0 1.59028e-015 -7.95139e-016 -0 1.59028e-015 -2.38542e-015 -1.27222e-014 9.83452e-008 4.10668e-008 -5.38367e-009 1.59028e-015 -7.95139e-016 -0 1.59028e-015 -2.38542e-015 -1.27222e-014 9.83452e-008 4.10668e-008 -5.38367e-009 7.95139e-016 0 -0 1.59028e-015 -7.95139e-016 -0 1.59028e-015 -2.38542e-015 -1.27222e-014 9.83452e-008 4.10668e-008 -5.38367e-009 1.59028e-015 -7.95139e-016 -0 1.59028e-015 -2.38542e-015 -1.27222e-014 9.83452e-008 4.10668e-008 -5.38367e-009 21.0717 -1.29243 -0.724308 4.20934 -12.7461 -3.6359 -40.25 75.6487 66.169 3.91482 12.3366 -4.92251 -7.95139e-016 2.38542e-015 -6.36111e-015 0 2.38542e-015 -0 -7.95139e-016 4.77083e-015 -6.36111e-015 0 0 -6.36111e-015 1.59028e-015 1.59028e-015 -0 -7.95139e-016 4.77083e-015 -3.18055e-015 2.20695e-031 3.97569e-015 -3.18055e-015 1.59028e-015 1.59028e-015 -0 -7.95139e-016 4.77083e-015 -3.18055e-015 2.20695e-031 3.97569e-015 -3.18055e-015 0 0 -6.36111e-015 1.59028e-015 1.59028e-015 -0 -7.95139e-016 4.77083e-015 -3.18055e-015 2.20695e-031 3.97569e-015 -3.18055e-015 1.59028e-015 1.59028e-015 -0 -7.95139e-016 4.77083e-015 -3.18055e-015 2.20695e-031 3.97569e-015 -3.18055e-015 29.7434 15.8109 39.0665 62.8102 37.7454 -62.3909 -21.7294 17.7135 -7.06632 -28.865 16.1881 -39.0945 -62.4465 36.6989 62.2568 22.8387 17.8115 5.84949 
